<?xml version="1.0" encoding="iso-8859-1"?>
<!-- Generator: Adobe Illustrator 19.0.0, SVG Export Plug-In . SVG Version: 6.00 Build 0)  -->
<svg version="1.1" id="Layer_1" xmlns="http://www.w3.org/2000/svg" xmlns:xlink="http://www.w3.org/1999/xlink" x="0px" y="0px"
	 viewBox="0 0 512.002 512.002" style="enable-background:new 0 0 512.002 512.002;" xml:space="preserve">
<g>
	<g>
		<path d="M474.567,166.074c1.192-5.444,1.702-11.06,1.702-16.675c0-47.134-38.285-85.419-85.419-85.419
			c-7.488,0-14.974,1.021-22.121,2.892C349.5,26.545,308.152,0.001,262.891,0.001c-53.939,0-99.541,35.904-113.153,86.099
			c-10.549-7.317-23.142-11.401-36.243-11.401c-35.222,0-63.979,28.757-63.979,63.979c0,7.657,1.361,14.974,4.084,22.121
			C23.311,165.732,0,192.106,0,223.926c0,35.222,28.757,63.979,63.979,63.979h383.872c35.391,0,64.148-28.757,64.15-63.809
			C512.002,198.914,497.027,176.283,474.567,166.074z M448.022,266.634H63.979c-23.651,0-42.709-19.227-42.709-42.709
			c0-23.651,19.227-42.709,42.709-42.709v-0.171h28.417L79.464,164.03c-5.615-7.486-8.678-16.335-8.678-25.523
			c0-23.651,19.227-42.709,42.709-42.709c13.783,0,26.374,6.636,34.541,17.866l16.675,23.14l2.552-28.586
			c4.594-49.685,45.602-87.119,95.628-87.119c39.817,0,75.889,25.182,89.842,62.617l3.913,10.38l10.209-4.084
			c7.828-3.233,15.825-4.765,24.163-4.765c35.222,0,63.979,28.757,63.979,63.979c0,6.807-1.021,13.614-3.234,20.079l-3.573,10.72
			l10.891,2.892c18.717,4.936,31.649,21.95,31.649,41.008C490.731,247.577,471.504,266.634,448.022,266.634z"/>
	</g>
</g>
<g>
	<g>
		<path d="M429.645,416.883c-46.453,47.474-108.049,73.678-173.73,73.678s-127.277-26.205-173.73-73.678l-15.314,14.974
			c50.536,51.728,117.578,80.144,189.044,80.144s138.506-28.586,189.044-80.144L429.645,416.883z"/>
	</g>
</g>
<g>
	<g>
		<path d="M384.552,370.601c-17.185,17.527-37.094,31.139-59.044,40.498c-43.9,18.717-95.116,18.717-139.187,0
			c-22.119-9.359-41.858-22.971-59.044-40.498l-15.314,14.974c19.229,19.567,41.348,34.881,66.021,45.261
			c24.672,10.549,50.876,15.825,77.931,15.825s53.258-5.275,77.929-15.825c24.673-10.549,46.963-25.693,66.021-45.261
			L384.552,370.601z"/>
	</g>
</g>
<g>
	<g>
		<path d="M339.462,324.659c-22.29,22.802-52.068,35.393-83.546,35.393c-31.478,0-61.256-12.593-83.546-35.393l-15.314,14.974
			c26.374,27.055,61.425,41.858,98.86,41.858c37.433,0,72.487-14.804,98.86-41.858L339.462,324.659z"/>
	</g>
</g>
<g>
</g>
<g>
</g>
<g>
</g>
<g>
</g>
<g>
</g>
<g>
</g>
<g>
</g>
<g>
</g>
<g>
</g>
<g>
</g>
<g>
</g>
<g>
</g>
<g>
</g>
<g>
</g>
<g>
</g>
</svg>
